<?xml version="1.0" encoding="utf-8"?>
<!-- Generator: Adobe Illustrator 20.0.0, SVG Export Plug-In . SVG Version: 6.00 Build 0)  -->
<svg version="1.1" id="Layer_1" xmlns="http://www.w3.org/2000/svg" xmlns:xlink="http://www.w3.org/1999/xlink" x="0px" y="0px"
	 viewBox="0 0 271.8 336.1" style="enable-background:new 0 0 271.8 336.1;" xml:space="preserve">
<style type="text/css">
	.st0{fill:url(#SVGID_1_);}
	.st1{fill:url(#SVGID_2_);}
	.st2{fill:url(#SVGID_3_);}
	.st3{fill:url(#SVGID_4_);}
</style>
<g id="logo">
	<linearGradient id="SVGID_1_" gradientUnits="userSpaceOnUse" x1="130.8831" y1="157.515" x2="364.7711" y2="113.8972">
		<stop  offset="0" style="stop-color:#000000"/>
		<stop  offset="2.895103e-02" style="stop-color:#201203"/>
		<stop  offset="8.006049e-02" style="stop-color:#522D09"/>
		<stop  offset="0.1337" style="stop-color:#7E460D"/>
		<stop  offset="0.189" style="stop-color:#A35B11"/>
		<stop  offset="0.2463" style="stop-color:#C26B14"/>
		<stop  offset="0.3063" style="stop-color:#D97917"/>
		<stop  offset="0.3701" style="stop-color:#EA8219"/>
		<stop  offset="0.4404" style="stop-color:#F4871A"/>
		<stop  offset="0.5296" style="stop-color:#F7891A"/>
		<stop  offset="0.6024" style="stop-color:#F4871A"/>
		<stop  offset="0.664" style="stop-color:#E98119"/>
		<stop  offset="0.7216" style="stop-color:#D87817"/>
		<stop  offset="0.7767" style="stop-color:#BF6A14"/>
		<stop  offset="0.8301" style="stop-color:#9F5811"/>
		<stop  offset="0.8821" style="stop-color:#78430D"/>
		<stop  offset="0.9331" style="stop-color:#4A2908"/>
		<stop  offset="0.9821" style="stop-color:#150C02"/>
		<stop  offset="1" style="stop-color:#000000"/>
	</linearGradient>
	<path class="st0" d="M195,300.4c8.7-23.8,17.7-52.7,17.7-87.5c0-23.5-4.1-49.8-15.4-79.2C183,89.6,158.3,30.8,145,0
		c50,2.7,91.5,26.5,118.9,44C291.5,184.5,240.6,261.3,195,300.4z"/>
	<linearGradient id="SVGID_2_" gradientUnits="userSpaceOnUse" x1="-41.0092" y1="271.571" x2="320.798" y2="207.6979">
		<stop  offset="0" style="stop-color:#000000"/>
		<stop  offset="3.764264e-02" style="stop-color:#2C1805"/>
		<stop  offset="8.399349e-02" style="stop-color:#5B330A"/>
		<stop  offset="0.1332" style="stop-color:#854A0E"/>
		<stop  offset="0.1845" style="stop-color:#A85D12"/>
		<stop  offset="0.2384" style="stop-color:#C56D15"/>
		<stop  offset="0.2957" style="stop-color:#DB7A17"/>
		<stop  offset="0.3582" style="stop-color:#EB8219"/>
		<stop  offset="0.4296" style="stop-color:#F4871A"/>
		<stop  offset="0.5296" style="stop-color:#F7891A"/>
		<stop  offset="0.5753" style="stop-color:#F18619"/>
		<stop  offset="0.635" style="stop-color:#E17D18"/>
		<stop  offset="0.7026" style="stop-color:#C66E15"/>
		<stop  offset="0.7759" style="stop-color:#A05911"/>
		<stop  offset="0.8539" style="stop-color:#6F3E0C"/>
		<stop  offset="0.9345" style="stop-color:#351D06"/>
		<stop  offset="1" style="stop-color:#000000"/>
	</linearGradient>
	<path class="st1" d="M212.8,212.9c0,34.8-9.1,63.6-17.7,87.5c-30.8,26.4-59.1,35.7-59.1,35.7s-65.1-21.2-105.2-91.3
		c34.1,12.7,81.7,21.4,120.6,8c32.7-7.1,57.3-36.2,57.3-71c0-9.9-4.5-27.4-11.2-48C208.6,163.1,212.8,189.4,212.8,212.9z"/>
	<linearGradient id="SVGID_3_" gradientUnits="userSpaceOnUse" x1="-38.7939" y1="188.8884" x2="143.75" y2="127.0391">
		<stop  offset="0" style="stop-color:#000000"/>
		<stop  offset="9.488540e-04" style="stop-color:#030200"/>
		<stop  offset="1.452479e-02" style="stop-color:#311B05"/>
		<stop  offset="2.911076e-02" style="stop-color:#5A3209"/>
		<stop  offset="4.548502e-02" style="stop-color:#80470D"/>
		<stop  offset="6.330043e-02" style="stop-color:#A05911"/>
		<stop  offset="8.299602e-02" style="stop-color:#BC6814"/>
		<stop  offset="0.1053" style="stop-color:#D27416"/>
		<stop  offset="0.1312" style="stop-color:#E37E18"/>
		<stop  offset="0.1634" style="stop-color:#EE8419"/>
		<stop  offset="0.2084" style="stop-color:#F5881A"/>
		<stop  offset="0.3335" style="stop-color:#F7891A"/>
		<stop  offset="0.4037" style="stop-color:#E57F18"/>
		<stop  offset="0.5445" style="stop-color:#B66513"/>
		<stop  offset="0.7431" style="stop-color:#6B3B0B"/>
		<stop  offset="0.9898" style="stop-color:#040200"/>
		<stop  offset="1" style="stop-color:#000000"/>
		<stop  offset="1" style="stop-color:#000000"/>
	</linearGradient>
	<path class="st2" d="M151.3,252.8c-38.8,13.4-86.5,4.7-120.6-8C5.3,200.2-10.1,136,7.7,44.9c6.5,45.8,32,155.8,84.4,194.8
		c0,0,0.1,0.1,0.1,0.1c0.5,0.4,1,0.7,1.4,1c2.1,1.5,4.2,2.9,6.4,4.1c0.5,0.3,0.9,0.5,1.4,0.8c0.2,0.1,0.4,0.2,0.7,0.4
		c0.2,0.1,0.5,0.3,0.7,0.4c2.8,1.4,5.6,2.7,8.5,3.7l0,0c0.4,0.2,0.8,0.3,1.2,0.4c0.3,0.1,0.7,0.2,1.1,0.4c7,2.3,14.5,3.5,22.2,3.5
		C141.2,254.4,146.3,253.8,151.3,252.8z"/>
	<linearGradient id="SVGID_4_" gradientUnits="userSpaceOnUse" x1="-62.864" y1="213.793" x2="248.9988" y2="14.9094">
		<stop  offset="0" style="stop-color:#000000"/>
		<stop  offset="1.507057e-03" style="stop-color:#030200"/>
		<stop  offset="2.306961e-02" style="stop-color:#311B05"/>
		<stop  offset="4.623638e-02" style="stop-color:#5A3209"/>
		<stop  offset="7.224348e-02" style="stop-color:#80470D"/>
		<stop  offset="0.1005" style="stop-color:#A05911"/>
		<stop  offset="0.1318" style="stop-color:#BC6814"/>
		<stop  offset="0.1672" style="stop-color:#D27416"/>
		<stop  offset="0.2084" style="stop-color:#E37E18"/>
		<stop  offset="0.2594" style="stop-color:#EE8419"/>
		<stop  offset="0.331" style="stop-color:#F5881A"/>
		<stop  offset="0.5296" style="stop-color:#F7891A"/>
		<stop  offset="0.6333" style="stop-color:#F4881A"/>
		<stop  offset="0.6978" style="stop-color:#EC8319"/>
		<stop  offset="0.7517" style="stop-color:#DD7B17"/>
		<stop  offset="0.7996" style="stop-color:#C96F15"/>
		<stop  offset="0.8436" style="stop-color:#AE6012"/>
		<stop  offset="0.8848" style="stop-color:#8D4E0F"/>
		<stop  offset="0.9238" style="stop-color:#66390B"/>
		<stop  offset="0.961" style="stop-color:#391F06"/>
		<stop  offset="0.9956" style="stop-color:#070401"/>
		<stop  offset="1" style="stop-color:#000000"/>
	</linearGradient>
	<path class="st3" d="M92,239.7C39.6,200.7,14.1,90.6,7.7,44.9c0-0.3,0.1-0.5,0.2-0.8C35.2,26.5,76.7,2.7,126.7,0
		c-19.5,45.2-63.5,150.5-63.5,181.8C63.2,205.4,74.5,226.4,92,239.7z"/>
</g>
</svg>
